<?xml version="1.0" encoding="UTF-8"?>
<svg version="1.1" xmlns="http://www.w3.org/2000/svg" width="278" height="249" viewBox="0 0 278 249">
<path d="M0 0 C91.74 0 183.48 0 278 0 C278 82.17 278 164.34 278 249 C186.26 249 94.52 249 0 249 C0 166.83 0 84.66 0 0 Z " fill="#48D0D4" transform="translate(0,0)"/>
<path d="M0 0 C91.74 0 183.48 0 278 0 C278 82.17 278 164.34 278 249 C186.26 249 94.52 249 0 249 C0 166.83 0 84.66 0 0 Z M65 45 C64.39800781 45.52722656 63.79601562 46.05445312 63.17578125 46.59765625 C54.12419529 54.84747003 47.36437683 66.68494895 43 78 C42.71769531 78.70898438 42.43539062 79.41796875 42.14453125 80.1484375 C37.23742034 93.54958302 36.51536268 106.93777696 36.60888672 121.05151367 C36.62495817 123.9300081 36.60895991 126.80709496 36.58984375 129.68554688 C36.57429299 143.96435899 37.8019973 157.55688956 43 171 C43.25136719 171.74894531 43.50273438 172.49789062 43.76171875 173.26953125 C48.12789655 185.49878038 56.0515742 195.76776219 65 205 C65.5259375 205.59941406 66.051875 206.19882813 66.59375 206.81640625 C74.83333413 215.87574492 86.6875879 222.63664105 98 227 C98.70898438 227.28230469 99.41796875 227.56460938 100.1484375 227.85546875 C113.54958302 232.76257966 126.93777696 233.48463732 141.05151367 233.39111328 C143.9300081 233.37504183 146.80709496 233.39104009 149.68554688 233.41015625 C163.96435899 233.42570701 177.55688956 232.1980027 191 227 C191.74894531 226.74863281 192.49789062 226.49726563 193.26953125 226.23828125 C205.49855495 221.87218394 215.76814373 213.94856826 225 205 C225.61101562 204.46246094 226.22203125 203.92492187 226.8515625 203.37109375 C235.38087344 195.60124201 241.24300162 184.38233774 246 174 C246.53625 172.906875 247.0725 171.81375 247.625 170.6875 C251.76969311 159.57218666 253.1372699 148.04286484 253.23828125 136.26171875 C253.25038887 134.88135185 253.25038887 134.88135185 253.26274109 133.47309875 C253.27650865 131.52920368 253.28726321 129.58528518 253.29516602 127.64135742 C253.30660687 125.69173886 253.326931 123.74214962 253.35668945 121.79272461 C253.81801738 91.46621215 246.25192626 67.26392275 225 45 C224.46117187 44.38640625 223.92234375 43.7728125 223.3671875 43.140625 C215.58820497 34.61892554 204.38380124 28.75766893 194 24 C192.906875 23.46375 191.81375 22.9275 190.6875 22.375 C179.57218666 18.23030689 168.04286484 16.8627301 156.26171875 16.76171875 C155.34147415 16.753647 154.42122955 16.74557526 153.47309875 16.73725891 C151.52920368 16.72349135 149.58528518 16.71273679 147.64135742 16.70483398 C145.69173886 16.69339313 143.74214962 16.673069 141.79272461 16.64331055 C111.46525461 16.18196805 87.26518233 23.74864384 65 45 Z " fill="#FAFCFC" transform="translate(0,0)"/>
<path d="M0 0 C0.95011963 -0.00574036 1.90023926 -0.01148071 2.87915039 -0.01739502 C4.87941892 -0.02146127 6.87976833 -0.01050618 8.87988281 0.01464844 C11.92955498 0.04679126 14.97392879 0.01491492 18.0234375 -0.0234375 C19.97396995 -0.01947235 21.92449912 -0.01178438 23.875 0 C24.77935791 -0.01214539 25.68371582 -0.02429077 26.61547852 -0.0368042 C32.34980984 0.089629 35.45574297 1.25823166 39.66845703 5.18280029 C41.55412954 7.58115589 41.86616732 9.80090249 41.9375 12.796875 C42.62714844 12.72726563 43.31679687 12.65765625 44.02734375 12.5859375 C50.80962747 12.19518864 54.67563618 13.17471434 60.16015625 17.19140625 C61.9375 18.796875 61.9375 18.796875 63.9375 21.796875 C63.48466981 28.24970519 63.48466981 28.24970519 60.9375 30.796875 C58.625 31.234375 58.625 31.234375 55.9375 30.796875 C55.195 29.9925 54.4525 29.188125 53.6875 28.359375 C49.97621116 24.90112858 46.85574113 24.91474135 41.9375 24.796875 C41.916875 25.663125 41.89625 26.529375 41.875 27.421875 C40.56685168 32.13120896 38.10831106 34.32924392 33.9375 36.796875 C30.56711117 37.63036743 27.33486698 37.64021547 23.875 37.59375 C22.92488037 37.59949036 21.97476074 37.60523071 20.99584961 37.61114502 C18.99558108 37.61521127 16.99523167 37.60425618 14.99511719 37.57910156 C11.94544502 37.54695874 8.90107121 37.57883508 5.8515625 37.6171875 C3.90103005 37.61322235 1.95050088 37.60553438 0 37.59375 C-0.90435791 37.60589539 -1.80871582 37.61804077 -2.74047852 37.6305542 C-8.47480984 37.504121 -11.58074297 36.33551834 -15.79345703 32.41094971 C-17.67912954 30.01259411 -17.99116732 27.79284751 -18.0625 24.796875 C-19.52172693 24.91097093 -20.97990598 25.03853044 -22.4375 25.171875 C-23.65566406 25.27628906 -23.65566406 25.27628906 -24.8984375 25.3828125 C-27.26584191 25.62580088 -27.26584191 25.62580088 -29.0625 27.796875 C-29.2611746 30.61239872 -29.33519007 33.32957449 -29.32128906 36.14624023 C-29.3247937 37.00978119 -29.32829834 37.87332214 -29.33190918 38.76303101 C-29.34073601 41.62725789 -29.33487349 44.4912392 -29.328125 47.35546875 C-29.328125 49.34082588 -29.33141191 51.3261827 -29.33392334 53.3115387 C-29.33687599 57.47701144 -29.33257287 61.64239853 -29.32324219 65.80786133 C-29.311855 71.15251972 -29.31840161 76.49697709 -29.33038712 81.84162807 C-29.33760821 85.94307474 -29.3353165 90.04447362 -29.33013153 94.14592171 C-29.32879534 96.11674078 -29.33044167 98.08756417 -29.33509064 100.05837822 C-29.34015912 102.81174104 -29.33244072 105.56477682 -29.32128906 108.31811523 C-29.32533752 109.13640305 -29.32938599 109.95469086 -29.33355713 110.79777527 C-29.30454442 114.65656961 -29.25361394 116.51020409 -27.0625 119.796875 C-24.53018299 120.09410811 -22.24154324 120.19613309 -19.70703125 120.16918945 C-18.94917328 120.17284012 -18.19131531 120.17649078 -17.41049194 120.18025208 C-14.89843529 120.18837647 -12.3870199 120.17473226 -9.875 120.16015625 C-8.13387045 120.15963787 -6.3927403 120.16015472 -4.65161133 120.16166687 C-0.99974855 120.16157706 2.65189386 120.15113032 6.30371094 120.13305664 C10.99158482 120.11036911 15.6791365 120.10982442 20.36705017 120.11657429 C23.96320474 120.11991114 27.55928545 120.11328955 31.15542603 120.10344505 C32.8842429 120.09958786 34.61306798 120.09844698 36.34188843 120.1000309 C38.75542942 120.10040056 41.16855281 120.0878095 43.58203125 120.0715332 C44.6605687 120.07524933 44.6605687 120.07524933 45.76089478 120.07904053 C49.79741167 120.1474743 49.79741167 120.1474743 52.9375 117.796875 C53.24842739 115.69068824 53.24842739 115.69068824 53.3125 113.359375 C53.71330312 109.06110703 53.71330312 109.06110703 55.6875 106.734375 C58.40451754 105.60228436 60.027677 105.27459908 62.9375 105.796875 C65.15868723 107.55850625 65.80954254 109.0026025 66.2578125 111.78515625 C66.55854052 117.58920701 65.2739366 122.03516451 61.9375 126.796875 C56.59386908 131.87332437 52.35668658 133.09716076 45.09887695 133.11914062 C43.91999657 133.13403534 43.91999657 133.13403534 42.71730042 133.14923096 C40.1200915 133.17841166 37.5231271 133.19206923 34.92578125 133.203125 C33.11459856 133.21463563 31.3034159 133.226151 29.49223328 133.2376709 C25.69345976 133.25867483 21.89477066 133.27036975 18.09594727 133.27734375 C13.24475461 133.28829292 8.39469048 133.33630754 3.5438509 133.39328766 C-0.19927649 133.43067347 -3.94213607 133.44095867 -7.68543434 133.4440155 C-9.47272708 133.45004276 -11.26001655 133.46601267 -13.04712486 133.49238586 C-29.78647207 133.72172484 -29.78647207 133.72172484 -36.35969543 128.86755371 C-41.33198263 122.82105287 -42.65658115 117.17438758 -42.59594727 109.47851562 C-42.60456284 108.58311569 -42.61317841 107.68771576 -42.62205505 106.7651825 C-42.64461861 103.82752962 -42.63799441 100.89083809 -42.62890625 97.953125 C-42.63414572 95.89863809 -42.64042338 93.84415359 -42.64768982 91.78967285 C-42.65807602 87.49264166 -42.65355749 83.19594201 -42.63891602 78.89892578 C-42.62172242 73.40440045 -42.64524042 67.91092031 -42.68040562 62.41651154 C-42.70241029 58.17670826 -42.7009308 53.93715397 -42.6926403 49.6973114 C-42.69182264 47.67200066 -42.69865054 45.6466713 -42.71341133 43.62141418 C-42.730916 40.78537494 -42.71626623 37.95120012 -42.69360352 35.11523438 C-42.70529572 34.28694626 -42.71698792 33.45865814 -42.72903442 32.60527039 C-42.63083918 26.53728889 -40.84796893 22.53028049 -37.0625 17.796875 C-32.57525866 13.63015089 -29.41572859 12.6633076 -23.375 12.734375 C-22.38113281 12.74339844 -21.38726562 12.75242187 -20.36328125 12.76171875 C-19.22439453 12.77912109 -19.22439453 12.77912109 -18.0625 12.796875 C-18.041875 11.930625 -18.02125 11.064375 -18 10.171875 C-15.54220434 1.32381062 -8.21273124 -0.1102957 0 0 Z " fill="#051415" transform="translate(133.0625,58.203125)"/>
<path d="M0 0 C4.99781721 2.70530814 8.57573697 5.43934243 10.71875 10.796875 C12.42375137 17.3647324 11.5573462 21.88285624 8.52105713 27.83029175 C6.52725617 31.19154501 3.96632982 33.79343812 1.1875 36.515625 C0.60809662 37.09648361 0.02869324 37.67734222 -0.56826782 38.27580261 C-1.78548194 39.49136878 -3.00759588 40.70204676 -4.234375 41.90795898 C-6.10203677 43.74656064 -7.95020737 45.60322865 -9.796875 47.46289062 C-10.98847288 48.64825276 -12.18114548 49.83253571 -13.375 51.015625 C-13.92207611 51.56563675 -14.46915222 52.1156485 -15.0328064 52.68232727 C-20.46784522 57.98660082 -26.52577527 60.38573607 -33.6640625 62.62109375 C-34.68016602 62.95850586 -34.68016602 62.95850586 -35.71679688 63.30273438 C-40.15507408 64.70272786 -44.02201096 65.32129972 -48.7265625 64.93359375 C-51.47985271 63.1379697 -53.25283711 61.88104453 -54.7265625 58.93359375 C-55.07706103 53.37468713 -54.15679552 48.76397146 -52.6015625 43.49609375 C-52.41335937 42.78388672 -52.22515625 42.07167969 -52.03125 41.33789062 C-48.92388474 30.64661203 -40.59585337 23.45715796 -32.92236328 15.8137207 C-31.22143372 14.11597456 -29.53434134 12.40524443 -27.84765625 10.69335938 C-26.75601906 9.59945077 -25.66359792 8.50632382 -24.5703125 7.4140625 C-24.07325806 6.90779831 -23.57620361 6.40153412 -23.06408691 5.87992859 C-16.3770034 -0.72050527 -8.97437906 -3.51003651 0 0 Z " fill="#061617" transform="translate(199.7265625,102.06640625)"/>
<path d="M0 0 C2.78271484 0.42407227 2.78271484 0.42407227 5.22021484 1.98657227 C6.78271484 4.42407227 6.78271484 4.42407227 6.72216797 7.68481445 C5.59559897 12.16884011 3.52550825 14.55101715 0.31396484 17.68969727 C-0.51754089 18.52981354 -0.51754089 18.52981354 -1.36584473 19.38690186 C-2.53877818 20.56390371 -3.71926515 21.73342076 -4.90673828 22.89575195 C-6.70526939 24.66227037 -8.46966574 26.45834829 -10.23291016 28.26000977 C-20.85153888 38.91823794 -20.85153888 38.91823794 -29.21728516 40.42407227 C-30.53728516 40.42407227 -31.85728516 40.42407227 -33.21728516 40.42407227 C-32.57863849 31.32335724 -28.87830535 25.62270156 -22.56884766 19.27172852 C-22.03383636 18.72673203 -21.49882507 18.18173553 -20.94760132 17.620224 C-19.82365591 16.48120245 -18.69571607 15.34610966 -17.56396484 14.21484375 C-15.83775593 12.4820257 -14.13700618 10.72654989 -12.43603516 8.96899414 C-11.33594536 7.8601093 -10.23443074 6.75263577 -9.13134766 5.64672852 C-8.6280191 5.12184341 -8.12469055 4.59695831 -7.60610962 4.0561676 C-5.06215981 1.56041679 -3.57580753 0.47132931 0 0 Z " fill="#46CCD0" transform="translate(192.21728515625,112.575927734375)"/>
<path d="M0 0 C11.88 0 23.76 0 36 0 C36 3.96 36 7.92 36 12 C24.12 12 12.24 12 0 12 C0 8.04 0 4.08 0 0 Z " fill="#48D1D5" transform="translate(127,71)"/>
<path d="M0 0 C0.94746094 -0.00773438 1.89492187 -0.01546875 2.87109375 -0.0234375 C5.91441571 0.42709783 7.29511099 1.34882258 9.5625 3.375 C9.25 6.75 9.25 6.75 8.5625 10.375 C5.24650876 12.58566083 3.94975511 12.69775195 0.0625 12.75 C-0.8965625 12.77835938 -1.855625 12.80671875 -2.84375 12.8359375 C-5.4375 12.375 -5.4375 12.375 -7.2578125 10.51171875 C-8.71789022 7.86714089 -8.89572803 6.35348218 -8.4375 3.375 C-6.0352389 0.0689179 -3.95855917 -0.03222708 0 0 Z " fill="#061819" transform="translate(123.4375,154.625)"/>
</svg>